<?xml version="1.0" encoding="utf-8"?>
<!-- Generator: Adobe Illustrator 27.1.1, SVG Export Plug-In . SVG Version: 6.00 Build 0)  -->
<svg version="1.1" id="Layer_1" xmlns="http://www.w3.org/2000/svg" xmlns:xlink="http://www.w3.org/1999/xlink" x="0px" y="0px"
	 viewBox="0 0 1000 400" style="enable-background:new 0 0 1000 400;" xml:space="preserve">
<style type="text/css">
	.st0{fill:#0A0203;}
</style>
<g>
	<g>
		<g>
			<path class="st0" d="M101.8,74H58.7l61.5,139.7c0.5,1.1,2,1.1,2.4,0l20.4-48.1L101.8,74z"/>
			<path class="st0" d="M233,74c0,0-66,151.2-74.9,165.2c-10.3,16.2-17.1,22.4-29.7,24.4c-0.1,0-0.2,0.1-0.2,0.2
				c0,0.1,0.1,0.2,0.2,0.2h39.5c17.1,0,29.4-14.3,36.3-26.9C211.9,222.9,276.8,74,276.8,74H233z"/>
		</g>
		<g>
			<path class="st0" d="M405.6,195.3c-0.1,0.2-0.4,0.2-0.5,0l-32.8-71.7h-18.4c0,0,33.8,76.1,37.1,81.8c3.3,5.6,7.3,10.1,14.3,10.1
				c7,0,11-4.6,14.3-10.1c3.4-5.7,37.1-81.8,37.1-81.8h-18.4L405.6,195.3z"/>
			<path class="st0" d="M505.5,121.5c-27.9,0-45.8,18.1-45.8,47.5c0,29.5,17.9,47.5,45.8,47.5c27.8,0,45.8-18.1,45.8-47.5
				C551.3,139.6,533.3,121.5,505.5,121.5z M505.5,201.6c-17.8,0-29.5-11.6-29.5-32.5c0-20.9,11.7-32.5,29.5-32.5
				c17.7,0,29.5,11.6,29.5,32.5C535,190,523.2,201.6,505.5,201.6z"/>
			<path class="st0" d="M645.5,123.6v90.9h-18.9l-44-66.4v66.4h-16.1v-90.9h18.9l44,66.9v-66.9H645.5z"/>
			<path class="st0" d="M704.7,122.6c-6.6,0-10.7,5-13.3,10.1c-2.7,5.2-35.5,81.8-35.5,81.8h16.8l9.4-22h45.2l9.4,22h16.8
				c0,0-32.7-76.7-35.5-81.8C715.4,127.6,711.3,122.6,704.7,122.6z M688.6,177.2l15.8-37.1c0.1-0.2,0.4-0.2,0.5,0l15.8,37.1H688.6z"
				/>
			<path class="st0" d="M799,179.4h28.8c-0.1,14.1-13.3,22.1-27.3,22.1c-17.5,0-29-11.6-29-32.5c0-22.6,10.6-32.6,30-32.6
				c12.1,0,22.2,5,24.3,16.4h16.7c-2.9-20-21.3-31.3-42-31.3c-27.4,0-45.1,18.1-45.1,47.5c0,29.5,17.6,47.2,45.1,47.2
				c11.6,0,23.2-6.2,27.3-12.8l-0.1,11h15.4v-28v-20.9H799V179.4z"/>
			<polygon class="st0" points="925.9,138.8 925.9,123.6 860.6,123.6 860.6,214.5 925.9,214.5 925.9,199.3 876.7,199.3 876.7,175.4 
				922.1,175.4 922.1,160.2 876.7,160.2 876.7,138.8 			"/>
		</g>
	</g>
</g>
<g>
	<path class="st0" d="M522.1,261.2h-16.6v41.3h4.8v-15.7h10.8c8.3,0,13.9-5.4,13.9-13.3C534.9,266,529.9,261.2,522.1,261.2z
		 M510.3,265.8h11.1c5.3,0,8.7,3,8.7,7.9c0,5.1-3.7,8.6-9.2,8.6h-10.6V265.8z"/>
	<path class="st0" d="M551.9,271.5c-6.7,0-11.4,3-13.2,8.4l-0.1,0.4l4.4,1.3l0.1-0.3c1.2-3.6,4.2-5.5,8.7-5.5c4.3,0,6.7,1.7,6.7,4.7
		c0,3.3-3.1,3.9-8,4.5l-0.2,0c-5.4,0.7-12.2,1.6-12.2,9.1c0,5.5,3.7,8.8,9.9,8.8c3.3,0,7.7-0.9,10.5-4.9v4.5h4.6v-21.6
		C563.2,275,559,271.5,551.9,271.5z M558.6,286.8v3.7c0,4.9-3.9,8.2-9.8,8.2c-4,0-6-1.6-6-4.7c0-4.1,3.7-4.6,7.9-5.2l0.2,0
		C553.9,288.3,556.7,287.9,558.6,286.8z"/>
	<path class="st0" d="M586.6,271.8c-4.3,0-7.5,1.9-9.2,5.3v-5h-4.6v30.4h4.6v-15.4c0-6.9,3.2-10.7,9-10.7c0.8,0,1.6,0.1,2.5,0.2
		l0.4,0.1l0.3-4.4l-0.3-0.1C588.4,271.9,587.5,271.8,586.6,271.8z"/>
	<path class="st0" d="M611.8,298.2c-1.3,0.3-2.5,0.5-3.5,0.5c-3.7,0-4.2-2.1-4.2-4.5v-17.8h7.8v-4.3h-7.8v-9.3l-4.6,1.2v8.1h-5.9
		v4.3h5.9v18.7c0,1.9,0,7.9,7.6,7.9c1.6,0,3.5-0.3,5.3-0.8l0.3-0.1l-0.5-4L611.8,298.2z"/>
	<path class="st0" d="M645.9,271.5c-8.5,0-13.7,6-13.7,15.7c0,9.7,5.3,15.7,13.7,15.7c8.5,0,13.8-6,13.8-15.7
		C659.7,277.5,654.4,271.5,645.9,271.5z M645.9,298.7c-5.8,0-9.1-4.2-9.1-11.4c0-7.3,3.3-11.4,9.1-11.4c5.8,0,9.1,4.2,9.1,11.4
		C655,294.5,651.7,298.7,645.9,298.7z"/>
	<path class="st0" d="M678,259.1c-5.8,0-8.6,2.9-8.6,8.9v4.1h-5.9v4.3h5.9v26.1h4.6v-26.1h7.9v-4.3h-7.9v-3.6c0-3.6,1.4-5.2,4.5-5.2
		c1,0,2,0.2,3.1,0.5l0.4,0.1l0.6-4.2l-0.3-0.1C681,259.3,679.5,259.1,678,259.1z"/>
	<polygon class="st0" points="703.6,302.5 729.3,302.5 729.3,297.9 708.4,297.9 708.4,283.6 727.4,283.6 727.4,279 708.4,279 
		708.4,265.8 729.3,265.8 729.3,261.2 703.6,261.2 	"/>
	<path class="st0" d="M751.6,271.8c-4.3,0-7.5,1.9-9.2,5.3v-5h-4.6v30.4h4.6v-15.4c0-6.9,3.2-10.7,9-10.7c0.8,0,1.6,0.1,2.5,0.2
		l0.4,0.1l0.3-4.4l-0.3-0.1C753.3,271.9,752.4,271.8,751.6,271.8z"/>
	<rect x="760.5" y="272.1" class="st0" width="4.6" height="30.4"/>
	<rect x="760.2" y="261.1" class="st0" width="5.2" height="6.5"/>
	<path class="st0" d="M786.5,275.8c4.1,0,6.8,2.1,7.7,6l0.1,0.4l4.5-1l-0.1-0.4c-1.5-5.9-5.8-9.2-12.2-9.2
		c-8.6,0-13.7,5.9-13.7,15.8c0,9.8,5,15.6,13.5,15.6c6.4,0,10.9-3.4,12.3-9.4l0.1-0.4l-4.5-1l-0.1,0.4c-1,4-3.7,6.2-7.8,6.2
		c-5.7,0-8.9-4-8.9-11.3C777.6,280,780.9,275.8,786.5,275.8z"/>
	<path class="st0" d="M817.6,285.2c-4.3-0.7-8.1-1.4-8.1-4.9c0-2.9,2.4-4.7,6.6-4.7c4.1,0,6.6,1.7,7.6,5.2l0.1,0.4l4.2-1.3l-0.1-0.4
		c-1.3-5.2-5.5-8-11.7-8c-7,0-11.3,3.5-11.3,9.1c0,6.5,5.7,7.5,10.8,8.4l0.2,0c4.3,0.8,8,1.4,8,4.9c0,3-2.6,4.9-6.7,4.9
		c-4.4,0-7.5-2.2-8.5-6.1l-0.1-0.4l-4.4,1.3l0.1,0.4c1.4,5.5,6.3,8.9,12.8,8.9c6.8,0,11.4-3.8,11.4-9.5
		C828.5,287,822.7,286,817.6,285.2z"/>
	<path class="st0" d="M847.7,285.2c-4.3-0.7-8.1-1.4-8.1-4.9c0-2.9,2.4-4.7,6.6-4.7c4.1,0,6.6,1.7,7.6,5.2l0.1,0.4l4.2-1.3l-0.1-0.4
		c-1.3-5.2-5.5-8-11.7-8c-7,0-11.3,3.5-11.3,9.1c0,6.5,5.7,7.5,10.8,8.4l0.2,0c4.3,0.8,8,1.4,8,4.9c0,3-2.6,4.9-6.7,4.9
		c-4.4,0-7.5-2.2-8.5-6.1l-0.1-0.4l-4.4,1.3l0.1,0.4c1.4,5.5,6.3,8.9,12.8,8.9c6.8,0,11.4-3.8,11.4-9.5
		C858.6,287,852.8,286,847.7,285.2z"/>
	<path class="st0" d="M878.1,271.5c-8.5,0-13.7,6-13.7,15.7c0,9.7,5.3,15.7,13.7,15.7c8.5,0,13.8-6,13.8-15.7
		C891.9,277.5,886.6,271.5,878.1,271.5z M878.1,298.7c-5.8,0-9.1-4.2-9.1-11.4c0-7.3,3.3-11.4,9.1-11.4c5.8,0,9.1,4.2,9.1,11.4
		C887.3,294.5,883.9,298.7,878.1,298.7z"/>
	<path class="st0" d="M914,271.5c-4.4,0-7.6,1.7-9.6,5v-4.5h-4.6v30.4h4.6v-17.2c0-5.6,3.5-9.4,8.8-9.4c5.6,0,6.7,4.2,6.7,7.7v18.9
		h4.6v-20.3C924.5,275.5,920.6,271.5,914,271.5z"/>
</g>
</svg>
